<svg id="Layer_1" data-name="Layer 1" xmlns="http://www.w3.org/2000/svg" viewBox="0 0 178.38 286.86"><defs><style>.cls-1{fill:#eb0311;}.cls-2{fill:#171716;}.cls-3{fill:#fcfcfb;}</style></defs><title>doki doki</title><path class="cls-1" d="M699.69,310.06c17.69-.17,34.19,4.45,48.36,14.79,22.43,16.38,37.34,37.64,39.28,66.46a88.91,88.91,0,0,1-1.13,23.85,78.83,78.83,0,0,1-13.1,30.73c-3.86,5.39-6.74,11.42-11.59,16.16-15.2,14.83-33.19,23.36-54.42,25.33a89.15,89.15,0,0,1-56.85-13.58c-6.11-3.83-11.37-9-16.49-14.22-18.41-18.69-24.45-41.58-23.53-67.06A74.61,74.61,0,0,1,617,364.7c2.72-6.06,5.78-12.14,10.53-17.55,4.5-5.11,9.17-10.16,13.77-15.22,2.54-2.81,6.57-3.85,8.94-6.35a30.8,30.8,0,0,1,9.45-6.61C674.06,312.06,684,310.21,699.69,310.06ZM621.08,397c-.45,5.5,1,11.56,2.37,17.52,2.09,9.33,3.89,18.86,9.89,26.84,10.63,14.11,22,27.26,40.12,31.87a6.1,6.1,0,0,1,.88.45,57.13,57.13,0,0,0,20.46,4.42c5.58.13,11.47.63,17.48-1.5,10.69-3.81,21.39-7,30.72-13.93a90.2,90.2,0,0,0,14.08-13.07,78.1,78.1,0,0,0,12.36-19.74c7.95-17.82,7.73-35.62,1.76-53.73-2.85-8.65-6.57-16.88-12.21-24.12-3.52-4.52-8.13-8-12.37-11.7-8.17-7.12-17.14-13-27.8-16.53-12.31-4.06-24.5-2.73-36.68-1.24-11.44,1.41-21.06,8.05-30.69,13.86-4.4,2.65-8.2,6.51-12.35,9.74-7,5.41-9.38,14.13-12.61,21.6C622.71,376.41,620,386.17,621.08,397Z" transform="translate(-609.26 -257.14)"/><path class="cls-2" d="M688,543.85c-5.16,0-10.33.12-15.49,0-5.62-.18-7.83-2-8.16-7.31a224.56,224.56,0,0,1,.38-29.46c.17-2.48,1.81-3.51,3.68-4.17a15.25,15.25,0,0,1,4.9-.74c10-.06,20-.11,30,0,7.15.09,8.87,1.5,9.23,8.73.42,8.31.39,16.66.09,25-.2,5.8-2.27,7.67-8.13,7.94C699,544.05,693.48,543.85,688,543.85Zm15.76-8.1c0-8.38,0-15.83,0-23.28,0-1.75-.64-2.89-2.58-2.89H673.4c0,8.4,0,16.16,0,23.92,0,1.75,1.13,2.25,2.63,2.26Z" transform="translate(-609.26 -257.14)"/><path class="cls-2" d="M688.21,299.09c-5.32,0-10.65.13-16,0s-7.27-1.77-7.68-7.1A222,222,0,0,1,664.3,265c.24-5.56,1.88-7.08,7.38-7.34,11.13-.54,22.29-.53,33.42,0,5.64.29,6.9,1.27,7.33,6.74a147.06,147.06,0,0,1-.26,28.38c-.52,4.62-2.51,6.1-7.49,6.24-5.48.15-11,0-16.47,0Zm15.53-33.68H673.3c0,7.93,0,15.58,0,23.23,0,1.93,1,2.66,2.76,2.67q12.5,0,25,.08c1.9,0,2.7-.91,2.7-2.74C703.73,281,703.74,273.38,703.74,265.41Z" transform="translate(-609.26 -257.14)"/><path class="cls-2" d="M609.26,544V502.91c.53-.27,1-.68,1.39-.68,10-.08,19.94-.63,29.87.48,10.19,1.13,16.6,8.09,17.07,18.1.57,12.17-4.44,19.41-14.91,22.06-6.74,1.71-13.55.87-20.33,1.07C618.07,544.07,613.79,544,609.26,544Zm9.09-21.18h.15c0,3.5,0,7,0,10.48,0,1.87.84,2.8,2.69,2.76,6-.13,12,.62,17.87-.91,7-1.8,9.5-6.11,8.8-15-.49-6.29-4-9.88-10.68-10.28-5.14-.32-10.31-.06-15.47-.19-2.67-.07-3.47,1.19-3.38,3.65C618.43,516.45,618.35,519.62,618.35,522.78Z" transform="translate(-609.26 -257.14)"/><path class="cls-2" d="M609.31,257.62c10.91.27,21.72-.73,32.46.58,9.37,1.15,15.54,8.68,15.85,18.28.39,12.12-4.5,19.25-14.79,21.59-5.66,1.29-27.6,1.8-33.52.72Zm9.34,7.67a223.3,223.3,0,0,0,.1,26.63c7.08-.15,13.74.56,20.29-1.14,7-1.81,9.53-6.34,8.81-15.61-.42-5.42-4.57-9.5-10.71-9.82C631.17,265.05,625.17,265.29,618.65,265.29Z" transform="translate(-609.26 -257.14)"/><path class="cls-2" d="M740.67,521.32l28.26,21.48c-7.28,1.13-14,2.33-19.95-3.62-5-5-11.1-8.87-17.26-13.68-1.6,6.3.11,12.13-.93,17.81-2.91,1.08-5.7.42-8.84.56V503.06c.42-.34.65-.69.92-.72,8-.89,8-.88,8,7.08v8.07c2.83,0,4-1.75,5.56-2.84,3.65-2.63,7.63-4.95,10.75-8.11,5.12-5.19,11.22-4.67,18-3.53Z" transform="translate(-609.26 -257.14)"/><path class="cls-2" d="M731.38,280.65c-1.1,6.42.17,12.23-.81,18.14a24.5,24.5,0,0,1-8.63,0V258.15c.6-.33.87-.59,1.17-.62,8-.84,8-.84,7.92,7.21,0,2.75-.35,5.53.35,8.81A110.87,110.87,0,0,0,748,261.23c5.31-4.75,11.05-4,17-3.82l.61,1.06c-8.15,6-16.31,12-25,18.39l28.78,22c-7.66.36-14,1.63-19.82-3.82C744.21,289.92,738,285.75,731.38,280.65Z" transform="translate(-609.26 -257.14)"/><path class="cls-2" d="M778.24,299.08V257.75c2.92-1,5.69-.06,8.74-.61V298.7C784.22,299.62,781.34,299.17,778.24,299.08Z" transform="translate(-609.26 -257.14)"/><path class="cls-2" d="M787.35,543.62a31.18,31.18,0,0,1-9-.09V502.79c.53-.3.93-.72,1.37-.75,7.45-.66,7.43-.65,7.45,6.79,0,9.83.1,19.66.15,29.49C787.36,540,787.35,541.61,787.35,543.62Z" transform="translate(-609.26 -257.14)"/><path class="cls-3" d="M621.08,397c-1.06-10.78,1.63-20.54,5.41-29.26,3.23-7.47,5.65-16.19,12.61-21.6,4.15-3.23,7.95-7.09,12.35-9.74,9.63-5.81,19.25-12.45,30.69-13.86,12.18-1.49,24.37-2.82,36.68,1.24,10.66,3.51,19.63,9.41,27.8,16.53,4.24,3.69,8.85,7.18,12.37,11.7,5.64,7.24,9.36,15.47,12.21,24.12,6,18.11,6.19,35.91-1.76,53.73a78.1,78.1,0,0,1-12.36,19.74A90.2,90.2,0,0,1,743,462.62c-9.33,6.94-20,10.12-30.72,13.93-6,2.13-11.9,1.63-17.48,1.5a57.13,57.13,0,0,1-20.46-4.42,6.1,6.1,0,0,0-.88-.45c-18.16-4.61-29.49-17.76-40.12-31.87-6-8-7.8-17.51-9.89-26.84C622.12,408.51,620.63,402.45,621.08,397Zm29-19.94c3.07-2.91,5.66-5.53,3.22-9.72a2.87,2.87,0,0,1,.07-2.43c2.81-4.84.35-9.31-.61-13.92-6.26.35-7.42,6.51-11.32,9.42a15.7,15.7,0,0,0-4.54,6.38c-2.89,6.47-4.67,13.29-6.39,20.11-1.43,5.67-.25,11.5-.49,17.22-.43,10.77,3.34,20.11,8.43,29.06a62.27,62.27,0,0,0,22.69,22.81c5.5,3.33,10.92,6.41,17,8,4.33,1.16,8,4,12.65,4.23a86.22,86.22,0,0,0,42.87-9.43c-3.44-1.64-4-4.5-4.12-7-.1-3.12-1.74-5-3.4-7.28-1.8.65-2.73,2.13-4.18,2.92-2,1.08-3.49.88-4.91-.62s-1.65-2.9-.28-4.82c2.19-3.07,4.31-5.56,8.56-6,3.69-.35,5.47-3.81,4-6.36s-3-2.83-6.16-.51c-1.28,1-2.27,2.05-3.88.92a3.38,3.38,0,0,1-1.21-4.43c1.08-2.38,2.11-4.79,4.52-6.36,4.41-2.89,4.74-3.88,3.5-9-.6-2.51-.51-4.75,2.2-5.77,2-.75,4.22,1.82,4.33,4.92.06,1.59-.81,3.31.85,4.58,1.37.45,2.66-.08,4-.24,3.74-.46,6.34.71,6.91,3.18.51,2.24-2.2,5.6-5.32,6a6.47,6.47,0,0,0-4.48,2.75c-1.25,1.54-3,3.46-1.41,5.31s4,1.38,5.77-.24c2-1.76,4.1-2.58,6.21-.79s4.15,3.87,3.32,6.81c-.75,2.62-3.47,2.7-5.76,3-.66.09-1.34,0-2,.08-3.08.38-4.82,1.89-4.71,5.24s0,6.94,0,10.37a3.81,3.81,0,0,0,4.3-1c2.51-3.12,6.28-4.87,8.77-7.73,6.81-7.81,13.18-16.05,15.67-26.5a11,11,0,0,1,1-2.81c1.8-3.26,2.22-6.85,2.74-10.44,1.48-10.37-.61-20.45-3.64-30.11a59.72,59.72,0,0,0-9-18.4c-6.73-8.94-15.09-15.69-24.61-21.26-4-2.34-7.6-5.94-13-4.23a1.84,1.84,0,0,1-1.41-.38c-7.35-5.71-16-1.82-24-3.15-2.36-.39-4.94,1.51-7.67,1.74-9.34.8-16.71,6.13-24.49,10.5,3.33,6.87,3.33,6.87,2.35,15.19-.68,5.77.15,6.68,5.41,9.21,2.73,1.31,7,1.17,7.91,4.1.79,2.4,1.45,5.65.18,8.66-6.32.64-9.62-3.85-13.16-7.56-3.5.5-4.3,2.31-4,5.59.54,6.44-.75,12.55-4.72,17.67-2.41-2.72-3.84-6.09-2.57-9.17C653.56,381.93,652.42,379.7,650.13,377Z" transform="translate(-609.26 -257.14)"/><path class="cls-1" d="M764.88,376.86a59.72,59.72,0,0,0-9-18.4c-6.73-8.94-15.09-15.69-24.61-21.26-4-2.34-7.6-5.94-13-4.23a1.84,1.84,0,0,1-1.41-.38c-7.35-5.71-16-1.82-24-3.15-2.36-.39-4.94,1.51-7.67,1.74-9.34.8-16.71,6.13-24.49,10.5,3.33,6.87,3.33,6.87,2.35,15.19-.68,5.77.15,6.68,5.41,9.21,2.73,1.31,7,1.17,7.91,4.1.79,2.4,1.45,5.65.18,8.66-6.32.64-9.62-3.85-13.16-7.56-3.5.5-4.3,2.31-4,5.59.54,6.44-.75,12.55-4.72,17.67-2.41-2.72-3.84-6.09-2.57-9.17,1.41-3.44.27-5.67-2-8.36,3.07-2.91,5.66-5.53,3.22-9.72a2.87,2.87,0,0,1,.07-2.43c2.81-4.84.35-9.31-.61-13.92-6.26.35-7.42,6.51-11.32,9.42a15.7,15.7,0,0,0-4.54,6.38c-2.89,6.47-4.67,13.29-6.39,20.11-1.43,5.67-.25,11.5-.49,17.22-.43,10.77,3.34,20.11,8.43,29.06a62.27,62.27,0,0,0,22.69,22.81c5.5,3.33,10.92,6.41,17,8,4.33,1.16,8,4,12.65,4.23a86.22,86.22,0,0,0,42.87-9.43c-3.44-1.64-4-4.5-4.12-7-.1-3.12-1.74-5-3.4-7.28-1.8.65-2.73,2.13-4.18,2.92-2,1.08-3.49.88-4.91-.62s-1.65-2.9-.28-4.82c2.19-3.07,4.31-5.56,8.56-6,3.69-.35,5.47-3.81,4-6.36s-3-2.83-6.16-.51c-1.28,1-2.27,2.05-3.88.92a3.38,3.38,0,0,1-1.21-4.43c1.08-2.38,2.11-4.79,4.52-6.37,4.41-2.88,4.74-3.87,3.5-9-.6-2.51-.51-4.75,2.2-5.77,2-.75,4.22,1.82,4.33,4.92.06,1.59-.81,3.31.85,4.58,1.37.45,2.66-.08,4-.24,3.74-.46,6.34.71,6.91,3.18.51,2.24-2.2,5.6-5.32,6a6.47,6.47,0,0,0-4.48,2.75c-1.25,1.54-3,3.46-1.41,5.31s4,1.38,5.77-.24c2-1.76,4.1-2.58,6.21-.79s4.15,3.87,3.32,6.81c-.75,2.62-3.47,2.7-5.76,3-.66.09-1.34,0-2,.08-3.08.38-4.82,1.89-4.71,5.24s0,6.94,0,10.37a3.81,3.81,0,0,0,4.3-1c2.51-3.12,6.28-4.87,8.77-7.73,6.81-7.81,13.18-16.05,15.67-26.5a11,11,0,0,1,1-2.81c1.8-3.26,2.22-6.85,2.74-10.44C770,396.6,767.91,386.52,764.88,376.86Zm-89.27-21.94c-2.38-.47-3.13-2.24-3.78-4.16a19.67,19.67,0,0,1-.49-2.06c-.12-4.75,4.07-8.64,8.33-8.12,2.89.36,4.36,4.22,2.68,7.24-.86,1.55-2.21,2.76-3.23,4.24C678.36,353.17,678,355.4,675.61,354.92Zm33,81c-1.22,1.83-3.83,2.52-6.43,1.38-3.81-1.68-7.83-3-9.39-7.44a1.48,1.48,0,0,0-.69-.66,5.65,5.65,0,0,0-1.27-.2c-1.57,2.18-1.43,4.89-1.49,7.41a65.41,65.41,0,0,1-1.29,13.25c-.18.78-.32,1.4-.47,1.91-.63,2.22-1.3,2.24-5,2.37h0c-1.45-2.82-.88-5.55-.29-8.29a26.69,26.69,0,0,0,.63-3.75c.75-10.57,3-21,2.33-31.72a8.9,8.9,0,0,1,.27-3.94c.82-1.88,1.72-4.48,4.36-3.93,2.32.48,2.51,3.19,2.35,5-.19,2.12-.47,4.21-.52,6.37-.28,11.79,2,9.86,10.66,13.57a24.57,24.57,0,0,1,4.41,2.21C709.25,431.13,710.07,433.77,708.64,435.92Zm3.54-29.16a35.58,35.58,0,0,0-4.12,5.43c-1.33,2.31-4.43,1.72-5.35-.82a14.11,14.11,0,0,1-.51-2.86c0-4.74,1.65-6.88,5.66-7.92a3.73,3.73,0,0,1,4.31,1.58A3.57,3.57,0,0,1,712.18,406.76Zm6.7-32.75a4.68,4.68,0,0,1-3.8,4c-6.64,1.75-7.42,2.72-7.87,9.49-.35,5.38-.35,5.38-2.6,7.32-2.1-1-2.18-3-2.51-5-.92-5.74-3.13-6.6-7.8-3.18a13.11,13.11,0,0,1-5,1.95c-3.73-4.11-3.09-3.77-.85-8.09,2.43-4.67,5.48-6.75,10.61-6.6a2.65,2.65,0,0,0,2.71-3.76c-.72-1.65-2.36-3.34-4.76-2.4a11.88,11.88,0,0,0-2,1.41c-1.34.9-2.68,2.81-4.31,1.73a5.63,5.63,0,0,1-2.15-5.72c.31-1.8-.16-4.4,2.61-4.78,6.13-.85,7.28-4.84,6.71-10.09a23,23,0,0,1,0-3c0-1.84.55-3.45,2.68-3.51a2.92,2.92,0,0,1,3.27,3,10,10,0,0,0,1,3.81c1,2.07,2.25,3.17,4.69,2.43,2.73-.83,5.39-.42,5.79,2.77.35,2.83-.46,5.66-4.1,6.4a11.75,11.75,0,0,0-3.68,1.48c-2.1,1.26-2.2,3.35-1.26,5.21,1.1,2.16,2.82,1.18,4.09,0,2.3-2.08,4.95-1.28,7-.29C719,369.48,719.24,371.91,718.88,374Z" transform="translate(-609.26 -257.14)"/></svg>